<svg xmlns="http://www.w3.org/2000/svg" id="Layer_2" data-name="Layer 2" viewBox="0 0 538.45 277.24"><defs><style>.cls-1,.cls-2{fill:#fcb435;stroke-width:0}.cls-2{fill:#992c10}</style></defs><g id="Layer_1-2" data-name="Layer 1"><path d="M41.36 88.46v10.17H26.34v42.49H15.06V98.63H0V88.46h41.36Zm47.89 52.67H77.97v-21.45H55.42v21.45H44.11V88.46h11.31v21.08h22.55V88.46h11.28v52.67ZM135.9 131v10.14H96.38V88.47h38.75v10.17h-27.44v10.54h21.41v10.14h-21.41V131h28.21Zm46.57-42.55c2.5.72 4.55 1.6 6.15 2.63 1.6 1.03 3.02 2.06 4.26 3.09 1.24 1.03 2.12 1.9 2.66 2.61l.84 1.1-7.16 7.16c-.15-.2-.35-.47-.61-.83s-.83-.96-1.73-1.82c-.89-.86-1.87-1.61-2.92-2.26-1.05-.65-2.44-1.25-4.15-1.8a17.05 17.05 0 0 0-5.25-.83c-4.92 0-9.04 1.65-12.34 4.96-3.31 3.31-4.96 7.42-4.96 12.34s1.65 9.04 4.96 12.34c3.31 3.31 7.42 4.96 12.34 4.96 1.91 0 3.74-.26 5.49-.79s3.2-1.15 4.35-1.87c1.15-.72 2.17-1.45 3.05-2.19.88-.73 1.52-1.37 1.91-1.91l.59-.77 6.79 7.16c-.2.29-.5.68-.9 1.16s-1.3 1.32-2.68 2.53a28.415 28.415 0 0 1-4.44 3.2c-1.58.92-3.65 1.76-6.21 2.52s-6.1 1.14-8.84 1.14c-8.03 0-13.92-2.69-19.44-8.06-5.52-5.37-8.28-11.85-8.28-19.41s2.76-14.03 8.28-19.39c5.52-5.36 12.3-8.04 20.33-8.04 2.77 0 5.4.36 7.9 1.08Zm16.89.01h11.31v52.67h-11.31V88.46Zm23.67 6.95c5.52-5.36 12.29-8.04 20.31-8.04s14.79 2.68 20.31 8.04c5.52 5.36 8.28 11.83 8.28 19.39s-2.76 14.04-8.28 19.41c-5.52 5.37-13.18 8.06-21.2 8.06s-13.9-2.69-19.42-8.06c-5.52-5.37-8.28-11.85-8.28-19.41s2.76-14.03 8.28-19.39Zm8.32 31.69c3.28 3.33 7.28 5 11.99 5s8.71-1.67 11.99-5c3.28-3.33 4.92-7.43 4.92-12.29s-1.64-8.96-4.92-12.3c-3.28-3.34-7.28-5.01-11.99-5.01s-8.71 1.67-11.99 5.01c-3.28 3.34-4.92 7.44-4.92 12.3s1.64 8.96 4.92 12.29ZM41.72 200.05l1.87-.37v8.63c-1.25.76-2.74 1.14-4.48 1.14s-3.29-.44-4.87-1.32c-1.58-.88-2.75-1.75-3.51-2.61l-1.03-1.32c-.34.39-.84.88-1.51 1.45-.66.58-2.13 1.35-4.41 2.33-2.28.98-4.7 1.47-7.27 1.47-4.92 0-8.91-1.35-11.96-4.06-3.05-2.71-4.57-5.99-4.57-9.86 0-1.81.34-3.58 1.01-5.31.67-1.73 1.49-3.18 2.44-4.35.95-1.18 1.91-2.22 2.86-3.12.95-.91 1.78-1.58 2.46-2.02l.99-.62c-.49-.49-1.11-1.18-1.87-2.06-.76-.88-1.76-2.47-3.01-4.77-1.25-2.3-1.87-4.41-1.87-6.32 0-3.6 1.34-6.7 4.02-9.29 2.68-2.6 5.97-3.89 9.86-3.89s7.4 1.23 10.01 3.69c2.61 2.46 3.91 5.5 3.91 9.13 0 1.4-.3 2.82-.9 4.28-.6 1.46-1.31 2.71-2.13 3.76-.82 1.05-1.66 2-2.52 2.85-.86.84-1.59 1.5-2.2 1.96l-.88.66 7.9 9.77c1.49-2.25 2.24-4.88 2.24-7.9h9.4c0 2.67-.37 5.26-1.12 7.77-.75 2.51-1.5 4.36-2.26 5.56l-1.14 1.73c1.25 2.01 2.75 3.01 4.52 3.01Zm-20.91-.39c1.26-.5 2.17-1 2.74-1.49l.88-.77-9.04-10.91c-.39.29-.88.7-1.45 1.21-.58.51-1.35 1.48-2.33 2.9s-1.47 2.82-1.47 4.19c0 1.76.58 3.14 1.73 4.13 1.15.99 2.83 1.49 5.03 1.49 1.35 0 2.65-.25 3.91-.75Zm-.66-35.57c-.84-.86-1.93-1.29-3.25-1.29-1.49 0-2.68.42-3.56 1.25-.88.83-1.32 1.92-1.32 3.27 0 1 .42 2.13 1.25 3.38.83 1.25 1.65 2.25 2.46 3.01l1.18 1.14c.34-.29.77-.7 1.29-1.23.51-.53 1.18-1.46 2-2.79.82-1.33 1.23-2.5 1.23-3.51 0-1.3-.42-2.38-1.27-3.23Zm82.93-8.83c2.5.72 4.55 1.6 6.15 2.63 1.6 1.03 3.02 2.06 4.26 3.09 1.24 1.03 2.12 1.9 2.66 2.61l.84 1.1-7.16 7.16c-.15-.2-.35-.47-.61-.83s-.83-.96-1.73-1.82c-.89-.86-1.87-1.61-2.92-2.26-1.05-.65-2.44-1.25-4.15-1.8s-3.46-.83-5.25-.83c-4.92 0-9.04 1.65-12.34 4.96-3.31 3.31-4.96 7.42-4.96 12.34s1.65 9.04 4.96 12.34c3.31 3.31 7.42 4.96 12.34 4.96 1.91 0 3.74-.26 5.49-.79s3.2-1.15 4.35-1.87c1.15-.72 2.17-1.45 3.05-2.19.88-.73 1.52-1.37 1.91-1.91l.59-.77 6.79 7.16c-.2.29-.5.68-.9 1.16s-1.3 1.32-2.68 2.53a28.415 28.415 0 0 1-4.44 3.2c-1.58.92-3.65 1.76-6.21 2.52s-5.21 1.14-7.95 1.14c-8.03 0-14.81-2.69-20.33-8.06-5.52-5.37-8.28-11.85-8.28-19.41s2.76-14.03 8.28-19.39c5.52-5.36 12.3-8.04 20.33-8.04 2.77 0 5.4.36 7.9 1.08Zm36.97 30.87h-22.62v-10.14h22.62v10.14Zm29.26 2.13c-1.78-1.08-3.94-1.98-6.5-2.7-2.56-.72-5.11-1.57-7.64-2.55-2.53-.98-4.69-2.6-6.48-4.85-1.79-2.25-2.68-5.11-2.68-8.56 0-4.26 1.71-7.9 5.12-10.91 3.42-3.01 7.85-4.52 13.31-4.52 2.15 0 4.24.25 6.24.75 2.01.5 3.65 1.09 4.94 1.76 1.29.67 2.41 1.36 3.38 2.06.97.7 1.66 1.3 2.08 1.82l.66.73-6.76 7.16c-.29-.34-.7-.76-1.23-1.27-.53-.5-1.63-1.17-3.32-2-1.69-.83-3.43-1.25-5.22-1.25-2.15 0-3.89.55-5.2 1.65-1.31 1.1-1.96 2.44-1.96 4 0 1.76.89 3.18 2.66 4.24 1.78 1.06 3.93 1.96 6.46 2.7 2.53.73 5.08 1.59 7.64 2.57s4.73 2.6 6.52 4.85c1.79 2.25 2.68 5.11 2.68 8.56 0 4.87-1.77 8.85-5.31 11.94-3.54 3.09-8.42 4.63-14.64 4.63-2.45 0-4.82-.3-7.11-.9-2.29-.6-4.17-1.32-5.66-2.15-1.48-.83-2.79-1.68-3.91-2.53-1.13-.86-1.93-1.58-2.42-2.17l-.84-.92 6.79-6.76c.34.39.83.9 1.45 1.52s2.01 1.46 4.17 2.52c2.15 1.05 4.41 1.58 6.76 1.58 2.72 0 4.84-.64 6.37-1.91 1.53-1.27 2.3-2.89 2.3-4.85 0-1.76-.89-3.18-2.66-4.26Zm52.35 7.09c2.28-2.38 3.42-5.33 3.42-8.85v-31.22h11.28v31.22c0 6.42-2.18 11.78-6.54 16.11-4.36 4.32-9.82 6.48-16.4 6.48s-12.04-2.16-16.4-6.48c-4.36-4.32-6.54-9.69-6.54-16.11v-31.22h11.28v31.22c0 3.5 1.14 6.45 3.43 8.83 2.29 2.39 5.04 3.58 8.25 3.58s5.95-1.19 8.23-3.56Zm21.45-40.07h11.31v52.67h-11.31v-52.67Zm56.91 0v10.17H285v42.49h-11.28v-42.49h-15.06v-10.17h41.36Zm42.95 42.53v10.14h-39.52v-52.67h38.75v10.17h-27.44v10.54h21.41v10.14h-21.41v11.68h28.21ZM38.75 222.07c2.5.72 4.55 1.6 6.15 2.63 1.6 1.03 3.02 2.06 4.26 3.09 1.24 1.03 2.12 1.9 2.66 2.61l.84 1.1-7.16 7.16c-.15-.2-.35-.47-.61-.83s-.83-.96-1.73-1.82c-.89-.86-1.87-1.61-2.92-2.26-1.05-.65-2.44-1.25-4.15-1.8a17.05 17.05 0 0 0-5.25-.83c-4.92 0-9.04 1.65-12.34 4.96s-4.96 7.42-4.96 12.34 1.65 9.04 4.96 12.34c3.31 3.31 7.42 4.96 12.34 4.96 1.91 0 3.74-.26 5.49-.79s3.2-1.15 4.35-1.87c1.15-.72 2.17-1.45 3.05-2.19.88-.73 1.52-1.37 1.91-1.91l.59-.77 6.79 7.16c-.2.29-.5.68-.9 1.16s-1.3 1.32-2.68 2.53a28.415 28.415 0 0 1-4.44 3.2c-1.58.92-3.65 1.76-6.21 2.52s-5.21 1.14-7.95 1.14c-8.03 0-14.81-2.69-20.33-8.06-5.52-5.37-8.28-11.85-8.28-19.41s2.76-14.03 8.28-19.39c5.52-5.36 12.3-8.04 20.33-8.04 2.77 0 5.4.36 7.9 1.08Zm16.89 52.69v-52.67h11.31v42.53h24.42v10.14H55.63Zm65.78-12.6c2.28-2.38 3.42-5.33 3.42-8.85v-31.22h11.28v31.22c0 6.42-2.18 11.78-6.54 16.11-4.36 4.32-9.82 6.48-16.4 6.48s-12.04-2.16-16.4-6.48c-4.36-4.32-6.54-9.69-6.54-16.11v-31.22h11.28v31.22c0 3.5 1.14 6.45 3.43 8.83 2.29 2.39 5.04 3.58 8.25 3.58s5.95-1.19 8.23-3.56Zm21.45 12.6v-52.67h22.59c4.77 0 8.72 1.4 11.84 4.19 3.12 2.79 4.68 6.04 4.68 9.73 0 1.4-.2 2.72-.59 3.99-.39 1.26-.89 2.31-1.51 3.14-.61.83-1.22 1.55-1.82 2.15-.6.6-1.1 1.02-1.49 1.27l-.62.37c.24.1.56.24.94.42s1.07.64 2.08 1.36c1 .72 1.89 1.51 2.64 2.37.76.86 1.45 2.03 2.08 3.51.62 1.48.94 3.07.94 4.76 0 4.21-1.68 7.84-5.03 10.87-3.35 3.04-7.64 4.55-12.85 4.55h-23.87Zm11.32-43.27v11.31h10.5c1.86 0 3.33-.51 4.41-1.54s1.62-2.4 1.62-4.11-.54-3.09-1.62-4.11c-1.08-1.03-2.55-1.54-4.41-1.54h-10.5Zm12.01 33.87c2.06 0 3.76-.65 5.12-1.95 1.36-1.3 2.04-2.9 2.04-4.81s-.68-3.52-2.04-4.83c-1.36-1.31-3.07-1.96-5.12-1.96h-12.01v13.55h12.01Z" class="cls-2"/><path d="M339.39 124.01c.31 0 .62.06.93.1l-2.61.12c.15-.03.29-.07.43-.1.43-.09.87-.13 1.25-.12Zm44.98 1.24s-.09.06-.14.09l.82.24c-.2-.18-.41-.36-.68-.33Zm39.62-96.73c.47-.26.85-.58 1.25-.93.49-.44.84-1.09 1.25-1.56.03-.03.11-.08.12-.12.17-.4.1-.94.06-1.37-.07-.79-.56-1.62-.61-2.44L422.5 29c.2-.02.41-.06.62-.1.33-.06.58-.21.87-.37Zm46.73.49c-.23.23-.29.53-.29.86l.96-.93c-.24-.05-.55-.05-.67.06Zm25.35 55.62c-.91-1.33-1.76-2.62-2.36-3.52-.96-1.43-2.51-4.57-3.68-5.85-.24-.26-.58-.55-.94-.87l-114.78 48.09 121.76-37.85Zm-13.2-26.35c-.6-.63-1.17-1.26-1.62-2-.18-.29-.31-.61-.37-.93-.08-.43.05-.88-.06-1.31-.09-.32-.24-.63-.37-.93-.87-1.98-1.91-3.88-2.89-5.8l-103.24 75.18 108.56-64.21Zm4.64 13.96c-.05-.19-.09-.38-.1-.58-.07-1.32.26-3.99 0-5.29-.16-.79-.66-1.63-.87-2.18-.09-.22-.28-.61-.37-.87-.1-.3 0-.63-.06-.87-.13-.54-.52-1.02-.81-1.43-.18-.26-.39-.49-.59-.72l-110.4 62.2 113.21-50.25Zm-11.15-27.41c-.27-.6-.55-1.2-.78-1.81-.16-.42-.22-.88-.37-1.31-.27-.76-.7-1.49-1-2.18-.26-.62-.48-1.29-.81-1.87-.35-.62-.98-1.09-1.37-1.68-.28-.42-.65-.9-.81-1.37-.14-.42-.05-.81-.12-1.25-.01-.08-.04-.15-.07-.23l-96.72 89.34 102.05-77.65Zm33.01 52.37c-1.01-1.14-2.87-1.85-3.65-2.58-1.39-1.31-4.56-3.52-5.86-4.92-.63-.68-1.39-1.67-2.18-2.75l-123.39 35.53L509.36 97.2Zm-109.98 97.03c-.68 2.23-.93 4.62-1.74 6.85-.05.13-.11.25-.12.37-.12 1.2-.65 2.4-.81 3.61-.04.32 0 .98 0 1.31 0 .44.03.93.06 1.37.03.43-.08 1.31 0 1.74.13.66.44 1.33.75 1.93 1.06 2.09 2.19 4.15 3.61 5.98.16.21.32.37.44.56.42.72.82 1.49 1.24 2.24 1.4 2.47 1.62 5.93 3.99 7.35.08.05.32-.08.37 0 .07.12-.22.3-.25.44-.08.32-.13 1.01 0 1.31.51 1.17.51 1.46 0 2.68-.17.4-.06 1.31 0 1.74.06.45.31.86.37 1.31.04.31-.11.7.06.87.05.05.24-.03.31 0 .02 0 .05.04.06.06.05.11-.06.31-.06.5 0 .12.09.23.12.31.27.57.18 1.25.25 1.87.06.56.1 1.12.19 1.68.29 1.82.5 3.62 1.12 5.35.5 1.39 1.31 2.73 2.12 3.92 1.26 1.86 2.98 3.35 4.05 5.29.45.81.6 1.75.94 2.61.29.75.55 1.5.87 2.24.3.69.58 1.45.94 2.18.56 1.15 1.42 2.23 1.87 3.49.11.3.19.62.25.93.06.31.06.59.19.81.6 1.02.56 1.18-.12 2.18-.47.69-.73 1.59-.62 2.37.09.67.79 1.09 1.12 1.62.26.41.59 1.35.87 1.74.15.21.33.34.5.5.37.34.86.58 1.25.81.6.35 1.14.78 1.81.87.62.09 1.2-.06 1.81-.25.45-.14.91-.28 1.25-.62.02-.02.03-.03.05-.04l-28.98-82.3c-.03.08-.08.15-.1.23Zm-75.01-68.29c1.57.64 3.29 1.01 4.92.81 1.18-.15 2.17-.97 3.24-1.39l-8.19.56s.02.01.03.01Zm21.18-.62c.31.06.62.14.87.12.94-.06 1.82-.25 2.74-.5.76-.2 1.44-.53 2.18-.81.07-.02.12-.05.19-.08l-8.6.59c.87.24 1.74.49 2.62.67Zm124.86-95.44c0-.33.07-.64.29-.86.11-.11.43-.11.67-.06l4.14-3.99c-1.73-.35-3.72.68-5.24.13-.29-.11-.47-.42-.75-.56-.58-.29-1.24-.37-1.93-.44-1.43-.13-2.96-.24-4.36.06-.33.07-.63.17-.93.31-1.21.56-2.24 1.37-3.49 1.93-.18.08-.33.26-.5.31-.52.15-1.06-.21-1.58-.4l-82.44 96.17 96.12-92.61Zm64.4 81.56c2.62-3.76 5.27-7.86 2.37-10.65-.36-.35-.75-.12-.93-.06-2.6.8-5.23 1.57-7.85 2.24-1.74.45-3.49.74-5.23 1.18-2.87.73-5.73 1.7-8.66 2.12-.93.13-2.05-1.2-3.05-1.93-1.3-.95-2.5-2.07-3.86-2.99-.3-.2-.91-.1-.93-.44-.01-.15.04-.26.14-.36l-132.49 21.93 160.51-11.04Zm-11.05 18.18c.74-.75 1.46-1.52 2.08-2.37.3-.41.5-.97.81-1.43.63-.96 1.58-1.68 2.24-2.68.36-.53.66-1.1.94-1.68.14-.3.25-.62.37-.93.77-1.86 1.33-3.83 2.3-5.58L374.3 122.5l149.47 7.13ZM472.9 31.75c.46.44.76.99 1 1.62.16.41.08.96.25 1.37.28.65.84 1.21 1.31 1.74.47.53.68 2.08 1.68 1.74.84-.28.08-1.33.25-1.8 1.02-2.85 1.45-5.12.31-7.91-.16-.4-.25-.82-.33-1.23l-4.71 4.35c.09.03.18.05.24.12Zm-98.59 90.74 9.03 3.78s.08 0 .1-.02c.21-.1.42-.48.61-.74l-9.73-3.02Zm-.82.36s.02.05.03.08l.79-.44-.82.36Zm-65.3-11.31c.13.84.23 1.68.61 2.44.15.29.4.53.69.82.23.21.52.29.76.5.32.29.57.65.93.93 1.07.86 2.33 1.39 3.47 2.16l43.91 3.02c.38-.19.74-.32 1.15-.44.42-.13.86-.27 1.3-.38.31-.08.63-.1.88-.11.02-.02.06-.02.08-.02l-53.78-8.91Zm65.26 11.21s.02.05.03.08l.83-.35-.86.27Zm-57.23-3.03c.25.23.48.48.74.67.4.3.86.44 1.24.69 1.09.71 1.78 1.74 2.75 2.5.57.44 1.15.93 1.74 1.37l15.02-.72c.15-.04.31-.06.44-.1.44-.1.86-.13 1.24-.11.32 0 .63.06.94.1l12.48-.59c.67-.3 1.34-.61 2.04-.88.74-.29 1.47-.63 2.25-.74.23-.04.57.06.86-.08.06-.02.11-.06.17-.11l-41.91-1.98Zm57.13 2.83s.03.05.04.08l.91-.15-.96.07Zm.06.11s.03.05.04.08l.86-.25-.9.17Zm.29.76s.03.09.05.13l.55-1.07-.6.94Zm-.05-.13s.03.07.04.11l.61-.91-.66.8Zm-.12-.34s.02.06.03.08l.75-.55-.78.46Zm.03.1.03.09.71-.66-.74.57Zm.05.11s.03.07.04.1l.66-.78-.7.68Zm-.47-1.01s.04.1.06.13l1.11.21-1.16-.34Zm.08.15s.04.08.06.11l1.03.08-1.09-.19Zm.55 1.29c.02.06.04.11.06.17l.48-1.27-.54 1.11ZM299.84 53.7c-.47.87-.97 1.74-1.57 2.52-.11.14-.21.23-.31.37-.18.28-.31.67-.37 1a1.3 1.3 0 0 0 0 .44c.1.41.68.87.56 1.12-.6 1.23-1.65 2.39-2.33 3.62l78.49 59.72-74.47-68.79Zm73.19 68.26c.04.06.06.11.1.15l1.18.38-1.28-.53Zm.27.47s.04.08.04.1l.97-.04-1.01-.06Zm-74.48-42.48c-.06.27-.11.53-.17.78-.27 1.43-.53 2.88-.86 4.29-.31 1.26-.86 1.24-2.5 2-.11.06-.17.15-.21.29l74.12 32.9c.38-.02.78 0 1.16.04l-71.54-40.3Zm74 41.7c.06.06.11.11.15.17.02.04.02.06.04.1l1.3.57-1.49-.84Zm-70.17-19.79c.02.25-.04.55-.27 1.05-.06.11 0 .42 0 .55s-.02.29.06.31c.21.1.67-.02.88 0 .06.02.13.02.19.04-.06 0-.13 0-.19.04-.17.08-.08.42-.11.67-.42 2.04 1.95 2.06 2.61 3.3.06.13.1.27.19.38.19.23.5.44.74.63.31.23.69.5.86.8.08.13.11.27.17.4l54.82 10.27c.21-.06.44-.11.65-.15.44-.06.86-.1 1.3-.11.52-.02 1.01.02 1.51.08l-63.41-18.24Zm-8.74-13.05c-.21.21-.38.44-.25.65.74 1.14 2.06.74 2.12 1.98l.06.93c.02.21.04.61 0 .82-.06.32-.31.61-.25.99.02.13.1.27.19.36.25.27.9.38.94.57.46 2.08 1.98 2.63 3.49 3.8.17.13.27.36.44.44.1.04.34.06.44 0 .23-.15.11-.59.3-.69.06-.04.21-.02.25.06.08.17-.13.44-.13.69.02.15.08.32.13.48l65.28 20.28c.08.02.17.02.25.04.23 0 .67-.02.88 0h.84L293.91 88.8Zm78.3 32.15c.08.06.15.11.21.17.13.15.23.29.34.44l1.54.92-2.1-1.53Zm-77.02-56.1c-.02.1-.04.17-.04.25.02.38.34.59.57.88.11.13.34.23.5.38.38.36.84.8.99 1.37.15.52.1 1.64 0 2.18-.1.57-.65 1.16-.55 1.74.04.3.33.5.44.69.13.25.11.55.36.69 1.91.92 2.29 1.05 2.19 2.37-.08.9-.25 1.79-.44 2.69l71.37 42.19c.34.06.69.11 1.01.25 0 0 .02.02.04.02l-76.45-55.68Zm79.12 57.63 3.34 4.96c.21-.04.4-.1.59-.17l-3.93-4.79Zm14.31 22.27c-.15.13-.32.25-.44.42-.1.11-.27.21-.32.44-.25 1.22-.06 2.58.34 3.84l1.22 2.33c.82.97 1.97 1.72 2.86 2.67.57.61 1.15 1.22 1.74 1.87.34.34.65.78.94 1.18.13.17.29.29.44.5 1.22 1.49 2.23 3.07 3.11 4.79.32.59.55 1.3.76 1.93.08.25.04.5.11.74.23.76-.02 2.06.74 2.25.02 0 .04-.08.08-.08.21.04.32.44.42.69.9 2.14 2.12 4.43 2 6.6-.06.9-.04 1.74.04 2.56l48.66 94.4c.52 0 1.01-.08 1.51-.29.61-.25 1.07-.92 1.56-1.35.63-.57 1.32-1.18 1.93-1.76.25-.23.53-.46.8-.74.44-.44.78-.97 1.2-1.49 1.55-1.95 3.03-3.99 4.5-6.05l-74.21-115.45Zm82.15 96.79c.11-.36.29-.71.48-1.03l-81.9-99.73c-.13.32-.25.65-.17.95.06.27.32.42.5.57.95.9 1.11.67 0 1.6-.21.17-.42.32-.63.48L465 257.24c.19-.27.36-.52.55-.76 1.2-1.62 2.92-2.84 3.93-4.56.46-.78.44-1.83.94-2.61.04-.06.23 0 .3-.11.38-.52.29-1.24.38-1.87.08-.55.11-1.13.11-1.74.02-1.32-.82-2.73-.44-4.05Zm-96.46-119.06 1.68 4.45c.08.06.15.13.23.19.15.11.32.17.48.23l-2.39-4.87Zm106.06 102.19-90.8-87.48c-.04.9.15 1.83.04 2.75-.02.1-.06.19-.08.29l83.91 97.91c.59-.53 1.3-.94 2-1.28.19-.08.38-.11.57-.19.3-.11.59-.25.86-.31.31-.08.67.02.88-.13 1.35-.99 2.16-2.67 2.61-4.29.1-.29.06-.63.13-.86.63-2.19.57-4.31-.13-6.41Zm-75.97-40.65c-.02.99-.17 1.98-.34 2.92-.13.76-.33 1.56-.74 2.23-.32.53-.95.78-1.37 1.24-.27.31-.5.63-.74 1.01-.19.25-.36.5-.57.8-.02.04-.04.06-.06.1l31.1 82.72c.53.04 1.07.11 1.66.04.9-.11 1.83 0 2.56-.5 1.79-1.22 2.27-.55 3.55-.06.3.1.57.08.88.11.46.06.86.31 1.32.38.21.02.65.04.86 0 1.51-.33 2.71-1.74 4.18-1.68.13 0 .19 0 .25-.08.25-.32.52-.57.78-.76l-43.3-88.49Zm102.28-39.64c.14-.15.27-.32.42-.46.16-.15.45-.23.69-.37.26-.16.52-.34.81-.56.97-.76 1.81-1.74 2.68-2.61.87-.87 1.77-1.79 2.74-2.61.54-.46 1.08-.99 1.68-1.37 1.06-.67 2.43-.98 3.43-1.74.76-.58 1.34-1.33 1.94-2.07l-146.75-10.1 132.37 21.91Zm-122.45-19.05s.09-.08.14-.09c.27-.04.48.14.68.33l111.84 32.2c.25-.37.5-.74.68-1.16.18-.42.3-.88.5-1.31.29-.63.53-1.26.87-1.8.29-.45.64-.8.94-1.18.33-.42.61-.94.93-1.37.24-.32.44-.62.75-.87.43-.35 1.2-.27 1.49-.75.02-.03.02-.1 0-.12-.02-.02-.11.03-.12 0-.11-.2.33-.3.5-.5.49-.57.91-1.19 1.34-1.82l-130.45-24.42 9.92 2.86Zm5.78 9.1c-.02.06-.02.1-.04.15-.08.44-.19.86-.25 1.37-.02.11-.02.31-.06.44-.02.08-.02.17-.04.25l88.31 81.58c.04-.29.13-.59.25-.84.57-1.3 2.59-1.6 3.17-2.92.13-.31-.29-1.18 0-1.32.1-.04.08.06.13.06.25.04.52.34.74.25.5-.17.44-1.05.88-1.3.11-.06.23-.11.36-.13 2.2-.11 1.68-1.34 2.63-2.12.1-.08.17-.3.3-.42.11-.13.17-.27.31-.38.23-.19.5-.34.76-.5l-97.47-74.17Zm-15.7-11.95 2.54 4.92c.23.08.46.08.67.06l-3.21-4.98Zm124.63 58.85c-.44-.31-.99-.48-1.37-.94-.21-.25-.27-.53-.44-.88-.38-.82-.59-1.72-.86-2.61-.04-.1-.08-.23-.11-.34l-106-47.06c.11.36-.13.84-.11 1.22.02.23.08.46.13.69l108.64 61.2c-.04-1.64 0-3.59.08-4.73.06-1.01.23-2.08.5-3.05.34-1.28 1.09-2.46-.44-3.49Zm-3.49-12.63c-.19-.4-.71-1.13-.94-1.49-.25-.44-.76-.82-.8-1.32-.17-2 .86-3.89 1.85-5.72l-107.51-33.41s.1.06.13.11c.23.3-.25.72-.32 1.11 0 .04-.02.11-.02.17l107.49 45.04c.02-1.13.59-2.23.5-3.36-.04-.4-.21-.76-.38-1.13Zm-121.36-44.22c.06.15.12.29.19.43l.03-2.43-.21 2.01Zm.63 1.23c.13.18.27.36.44.52l-.85-3.76.41 3.23Zm-.39-.69c.08.18.16.36.26.53.01.02.04.04.05.06l-.33-3.14.03 2.54Zm-.38-.95c.04.11.08.21.12.32l.25-1.92-.36 1.6Zm-.11-.28c.03.07.05.15.08.22l.38-1.54-.46 1.32Zm1.43 2.58c.17.16.37.3.56.45l-1.53-4.35.97 3.9Zm-.96-3.89 6.72 3.78c.67.02 1.36.17 1.97.08l-8.68-3.85Zm11.12 3.45c.1.11.17.23.25.31.13.17.25.36.44.5.04.04.13.06.19.06.44.1 1.03-.17 1.45-.13l-2.33-.73Zm-11.12-3.45 4.77 4.39c.19-.11.4-.21.59-.31l-5.36-4.08Zm0 0 4.07 4.75c.19-.1.38-.19.57-.29l-4.64-4.47Zm0 0 5.52 4.01c.19-.08.38-.15.57-.19.11-.02.23 0 .34-.02l-6.43-3.8Zm-67.83-79.13c-1.37 1.51-3.53 2.42-4.03 4.82-.26 1.23-.92 2.39-1.56 3.56l73.42 70.74-67.82-79.12Zm192.71 152.98-108.87-64.39c.1.31.15.59.15.9s-.21.61-.31.86c-.04.1-.06.19-.08.27l98.72 71.89c.95-.67 2.61-1.07 3.97-.94.55.08.95.38 1.37.38.13 0 .21-.17.25-.31.11-.5.06-.88.11-1.26.25-1.35.88-2.33 1.87-2.61.25-.06.5-.11.82-.11.17 0 .44.13.61.06.27-.1.29-.59.5-.8.17-.15.5-.23.63-.5.17-.34.02-.82.13-1.26.08-.32.34-.59.36-.92.02-.42-.11-.84-.25-1.26ZM454.2 25.21c-.51-.23-1.03-.46-1.55-.68-.56-.24-1.12-.65-1.74-.81-.72-.19-1.51.07-2.18-.06-.33-.06-.61-.31-.94-.37-.43-.08-1.31.06-1.74 0-.71-.09-1.49-.24-2.12-.56-.36-.18-.58-.57-.94-.75-.27-.14-.56-.22-.85-.3L374.3 122.49l79.89-97.27Zm-44.67-2.76c-.33-.47-.66-.95-.99-1.41-.29-.41-.44-.93-.81-1.18-.26-.18-.57-.1-.81-.19-.52-.19-.92-.53-1.43-.75-1.09-.45-2.25-.96-3.43-1.12-.59-.08-1.2.01-1.81.09L374.3 122.48l35.22-100.04ZM387.28.33c-.55.11-1.13.3-1.79.61-1.31.61-3.18.13-4.73-.25-1.9-.47-3.5-.51-5.18.59l-1.27 121.21L387.28.33Zm-71.59 35.04c-.36.33-.73.66-1.09.99-.23.2-.47.41-.75.56-.7.37-1.43.71-2.24.81-2.26.29-3.44 1.52-4.04 3.5l66.74 81.26-58.62-87.11Zm104.8-7.3c-.25-.19-.61-.68-.86-.86-1.07-.75-2.3-1.29-3.55-1.68-1.14-.35-2.33-.24-3.49-.56-.32-.09-.66-.15-.93-.31-.16-.1-.29-.23-.44-.35l-36.91 98.18 46.18-94.42Zm-98.58-7.24c-.24.51-.5 1.01-.83 1.46-1.08 1.48-1.08 2.99-.87 4.67.17 1.37.17 3.1-.56 4.11-.7.97-1.49 1.88-2.34 2.74l57 88.68-52.4-101.66Zm76.05-3.05c-.88-.29-1.72-.8-2.56-1.16-.31-.13-.63-.23-.87-.37-.46-.28-.84-.52-1.25-.87-.2-.17-.35-.34-.56-.5-.11-.08-.19-.04-.31-.06-.33-.06-.69-.25-1-.37-.44-.18-.89-.35-1.25-.56-.19-.11-.35-.22-.44-.37-.15-.28-.12-.56-.12-.87 0-.22-.08-.67 0-.87.03-.08.08-.13.12-.25.17-.41.59-.72.93-1 .09-.07.29-.18.37-.25.66-.51 1.3-.94 1.81-1.56 1.29-1.57.74-2.61-.5-4.23-.2-.27-.33-.67-.5-1.06-.57-1.32-1.22-2.21-2.01-2.72l-15.53 121.78 23.65-104.7Zm-65.68-7.09c-.36.52-.75 1.03-1.17 1.52-.46.53-1.12.86-1.43 1.49-.69 1.41-.49 1.77-2.37 1.18-.12-.04-.19.05-.31.12-1.16.68-2.55 1.31-3.3 2.3-.18.24-.31.5-.46.76l51.07 104.42-42.03-111.8Zm13.56-2.91c-1.67 0-3.41-.49-5.14-.37-1.93.13-3.31-.62-4.67-1.87-.36-.33-.7-1.46-1.62-1.12-.75.28-.99.93-1.07 1.71l40.97 116.36-28.46-114.7Zm80.83 16.75c.04.43.1.97-.06 1.37-.02.04-.1.09-.12.12-.41.47-.75 1.11-1.25 1.56-.4.36-.78.68-1.25.93-.29.16-.54.31-.87.37-.21.04-.42.08-.62.1l-48.19 93.5 65.12-101.32c-.29-.05-.58-.1-.86-.19-.32-.1-.59-.5-.87-.31-.01 0 .01.05 0 .06-.16.12-.47-.13-.62-.25-.53-.41-.76-1.16-1.18-1.68-.11-.14-.23-.29-.44-.37-.94-.38-1.99-.36-3.05-.5-.44-.06-.93-.14-1.37-.12-.32 0-.57.08-.87.19-.53.18-1.04.44-1.49.81-.48.39-1.05.77-1.54 1.21l-1.07 2.08c.06.82.54 1.65.61 2.44ZM373.04 1.94h-.13c-2.55-.35-5.89.72-7.54-1.18-.01-.01.01-.05 0-.06-1.14-.84-2.58-.84-4.04-.39l12.98 122.19-1.27-120.55Zm-14.17-.5c-.72.44-1.41.96-2.03 1.49-2.17 1.88-5.29 1.99-7.41 4.23-.24.25-.63.38-1.06.47l25.95 114.85L358.87 1.44Z" class="cls-1"/></g></svg>